<mxfile host="Electron" modified="2023-11-27T18:18:35.369Z" agent="Mozilla/5.0 (Macintosh; Intel Mac OS X 10_15_7) AppleWebKit/537.36 (KHTML, like Gecko) draw.io/21.4.0 Chrome/112.0.5615.204 Electron/24.5.1 Safari/537.36" etag="wGyFsx-M1Z0Bvv5wd_5r" version="21.4.0" type="device">
  <diagram name="Page-1" id="t2R2TcKucCS7vIUYW7pu">
    <mxGraphModel dx="1818" dy="993" grid="1" gridSize="10" guides="1" tooltips="1" connect="1" arrows="1" fold="1" page="1" pageScale="1" pageWidth="827" pageHeight="1169" math="0" shadow="0">
      <root>
        <mxCell id="0" />
        <mxCell id="1" parent="0" />
      </root>
    </mxGraphModel>
  </diagram>
</mxfile>
